<?xml version="1.0" encoding="UTF-8" standalone="no"?>
<!-- Created with Inkscape (http://www.inkscape.org/) -->

<svg
   width="127.87924mm"
   height="80.287125mm"
   viewBox="0 0 127.87924 80.287125"
   version="1.1"
   id="svg1"
   sodipodi:docname="Nora'sFloraLogo.svg"
   inkscape:version="1.4.2 (ebf0e940d0, 2025-05-08)"
   inkscape:export-filename="Nora'sFloraLogo.png"
   inkscape:export-xdpi="96"
   inkscape:export-ydpi="96"
   xmlns:inkscape="http://www.inkscape.org/namespaces/inkscape"
   xmlns:sodipodi="http://sodipodi.sourceforge.net/DTD/sodipodi-0.dtd"
   xmlns="http://www.w3.org/2000/svg"
   xmlns:svg="http://www.w3.org/2000/svg">
  <sodipodi:namedview
     id="namedview1"
     pagecolor="#505050"
     bordercolor="#eeeeee"
     borderopacity="1"
     inkscape:showpageshadow="0"
     inkscape:pageopacity="0"
     inkscape:pagecheckerboard="0"
     inkscape:deskcolor="#505050"
     inkscape:document-units="mm"
     inkscape:zoom="1.3346629"
     inkscape:cx="207.16841"
     inkscape:cy="154.34608"
     inkscape:window-width="1920"
     inkscape:window-height="1012"
     inkscape:window-x="0"
     inkscape:window-y="0"
     inkscape:window-maximized="1"
     inkscape:current-layer="layer1" />
  <defs
     id="defs1">
    <rect
       x="172.12167"
       y="418.65686"
       width="374.00876"
       height="108.06135"
       id="rect10" />
    <rect
       x="172.12167"
       y="418.65686"
       width="374.00876"
       height="108.06135"
       id="rect4" />
  </defs>
  <g
     id="layer1"
     transform="translate(-30.292012,-70.409398)">
    <g
       id="g5"
       style="display:inline;fill:#333333;fill-opacity:1"
       transform="matrix(1.0028846,0,0,1.0264285,-0.2727971,-2.6683581)">
      <path
         style="opacity:1;fill:#333333;fill-opacity:1;stroke-width:0.138;stroke-linejoin:round"
         d="m 94.827128,149.41604 c 0,0 1.969702,-17.72733 18.852872,-18.2901 h 30.67109 c 0,0 7.94415,0.54863 7.66277,-9.29988 0,0 -0.79588,-5.04788 -5.57945,-7.01758 0,0 10.42836,3.2318 11.55391,11.39199 0,0 0.0141,8.34453 -6.85276,14.78813 0,0 -9.71489,7.51501 -24.66249,8.41037"
         id="path1" />
      <path
         style="opacity:1;fill:#333333;fill-opacity:1;stroke:none;stroke-width:0.138;stroke-linejoin:round"
         d="m 94.317905,149.41604 c 0,0 -1.9697,-17.72733 -18.85287,-18.2901 h -30.67109 c 0,0 -7.94415,0.54863 -7.66277,-9.29988 0,0 0.79588,-5.04788 5.57945,-7.01758 0,0 -10.428362,3.2318 -11.553912,11.39199 0,0 -0.0141,8.34453 6.852762,14.78813 0,0 9.71489,7.51501 24.66249,8.41037"
         id="path2" />
    </g>
    <text
       xml:space="preserve"
       transform="matrix(0.26458333,0,0,0.26458333,-0.34917473,-2.2459591)"
       id="text4"
       style="font-size:18.6667px;font-family:'Berlin Sans FB';-inkscape-font-specification:'Berlin Sans FB, Normal';text-align:center;writing-mode:lr-tb;direction:ltr;white-space:pre;shape-inside:url(#rect4);display:inline;opacity:1;fill:#333333;stroke-width:0.521575;stroke-linejoin:round"><tspan
         x="180.74723"
         y="485.70634"
         id="tspan6"><tspan
           style="font-weight:900;font-size:74.6667px;font-family:'Morris Roman';-inkscape-font-specification:'Morris Roman, Heavy'"
           id="tspan5">Nora's Flora</tspan></tspan></text>
    <text
       xml:space="preserve"
       transform="matrix(0.26458333,0,0,0.26458333,-0.51361494,-2.7392798)"
       id="text10"
       style="font-size:18.6667px;font-family:'Berlin Sans FB';-inkscape-font-specification:'Berlin Sans FB, Normal';text-align:center;writing-mode:lr-tb;direction:ltr;white-space:pre;shape-inside:url(#rect10);display:inline;opacity:1;fill:#ffffff;fill-opacity:1;stroke-width:0.521575;stroke-linejoin:round"><tspan
         x="180.74723"
         y="485.70634"
         id="tspan8"><tspan
           style="font-weight:900;font-size:74.6667px;font-family:'Morris Roman';-inkscape-font-specification:'Morris Roman, Heavy'"
           id="tspan7">Nora's Flora</tspan></tspan></text>
    <g
       id="g4"
       transform="matrix(1.0408156,0,0,1.0150179,-3.8691485,-2.3345774)"
       style="display:inline;fill:#333333">
      <path
         style="fill:#333333;stroke-width:0.138;stroke-linejoin:round"
         d="m 90.209372,104.56461 c 0,0 -2.726943,-15.365811 -3.153314,-20.899209 -0.503033,-6.096773 1.662801,-9.089413 3.289207,-10.535463 1.279385,-1.137482 3.482591,-1.676136 5.050288,-1.383831 0.626218,0.116761 3.165142,0.696452 5.241447,3.971521 1.7439,2.750764 1.66506,5.631059 1.34524,9.614806 -0.26663,3.321448 -2.757679,19.470176 -2.757679,19.470176 z"
         id="path9-3" />
      <path
         style="opacity:1;fill:#333333;stroke-width:0.138;stroke-linejoin:round"
         d="m 105.60532,105.43755 c 0,0 13.41791,-7.96893 17.88701,-11.25944 4.94583,-3.60034 5.79795,-7.194866 5.83103,-9.370909 0.026,-1.711729 -1.00479,-3.73206 -2.2499,-4.728462 -0.49736,-0.398013 -2.59435,-1.942297 -6.43056,-1.376085 -3.22207,0.475569 -5.35195,2.416168 -8.16016,5.259842 C 110.14138,86.33339 99.537989,98.76539 99.537989,98.76539 Z"
         id="path8" />
      <path
         style="opacity:1;fill:#333333;stroke-width:0.138;stroke-linejoin:round"
         d="m 94.554569,107.90118 c 0,0 23.732821,-15.182317 30.237381,-17.409873 2.53248,-0.914505 9.24978,-3.8599 14.32584,2.78558 2.22315,2.910513 2.34632,5.052423 2.03945,8.108013 -0.36133,3.59778 -3.13378,5.97368 -6.41679,6.57059"
         id="path4" />
      <path
         style="opacity:1;fill:#333333;stroke-width:0.138;stroke-linejoin:round"
         d="m 84.384318,105.43755 c 0,0 -13.41791,-7.96893 -17.887011,-11.25944 -4.94583,-3.60034 -5.79795,-7.194866 -5.83103,-9.370909 -0.026,-1.711729 1.00479,-3.73206 2.2499,-4.728462 0.49736,-0.398013 2.59435,-1.942297 6.43056,-1.376085 3.222071,0.475569 5.351951,2.416168 8.160161,5.259842 2.34136,2.370894 12.94475,14.802894 12.94475,14.802894 z"
         id="path9" />
      <path
         style="opacity:1;fill:#333333;stroke-width:0.142744;stroke-linejoin:round"
         d="m 100.88132,105.7998 c 0,0 9.15257,-10.86362 12.26603,-15.48924 1.82916,-3.163105 3.9676,-8.06425 3.42706,-10.510599 -0.76223,-3.449614 -3.8603,-4.312785 -4.80186,-4.642396 -0.65431,-0.229047 -3.57857,-0.809064 -7.23433,1.153907 -3.07051,1.648722 -4.39218,4.184258 -6.010712,7.780712 -1.349442,2.998522 -6.7229,18.084746 -6.7229,18.084746 z"
         id="path6" />
      <path
         style="opacity:1;fill:#333333;stroke-width:0.145094;stroke-linejoin:round"
         d="m 88.10856,106.148 c 0,0 -9.307993,-11.03674 -12.474333,-15.736062 -1.860221,-3.21351 -4.034977,-8.192754 -3.485251,-10.678085 0.775173,-3.504583 3.925849,-4.381509 4.883405,-4.716372 0.665414,-0.232697 3.639333,-0.821957 7.357177,1.172294 3.122657,1.674994 4.466764,4.250934 6.11278,7.904697 1.372362,3.046304 6.837068,18.372928 6.837068,18.372928 z"
         id="path10" />
      <path
         style="opacity:1;fill:#333333;stroke-width:0.138;stroke-linejoin:round"
         d="M 95.037343,107.90118 64.799963,90.491307 c 0,0 -9.24978,-3.8599 -14.325844,2.78558 -2.22315,2.910513 -2.34632,5.052423 -2.03945,8.108013 0.36133,3.59778 3.13378,5.97368 6.416794,6.57059"
         id="path5" />
      <path
         id="path3"
         style="display:inline;opacity:1;fill:#333333;stroke-width:0.128037;stroke-linejoin:round"
         d="M 75.50644,107.90675 A 19.300093,16.614 0 0 1 94.806037,91.292733 19.300093,16.614 0 0 1 114.10615,107.90675 Z" />
      <path
         style="display:none;opacity:1;fill:#333333;stroke-width:0.138;stroke-linejoin:round"
         d="m 100.80658,96.656137 4.29115,-21.103959 c 0,0 1.54762,-6.401535 -1.1959,-8.934009 -3.26309,-3.012071 -7.949158,-2.88421 -8.582277,-2.813862 -0.633119,0.07035 -4.852093,0.387072 -7.386386,2.110394 -1.758662,1.195893 -3.341613,2.657062 -2.321435,9.14505 0.517587,3.291685 4.220793,21.737079 4.220793,21.737079 z"
         id="path7" />
    </g>
    <g
       id="g21"
       style="display:inline">
      <path
         style="display:inline;fill:#e6e6e6;stroke-width:0.138;stroke-linejoin:round"
         d="m 90.209372,104.56461 c 0,0 -2.726943,-15.365811 -3.153314,-20.899209 -0.503033,-6.096773 1.662801,-9.089413 3.289207,-10.535463 1.279385,-1.137482 3.482591,-1.676136 5.050288,-1.383831 0.626218,0.116761 3.165142,0.696452 5.241447,3.971521 1.7439,2.750764 1.66506,5.631059 1.34524,9.614806 -0.26663,3.321448 -2.757679,19.470176 -2.757679,19.470176 z"
         id="path13" />
      <path
         style="display:inline;opacity:1;fill:#e6e6e6;stroke-width:0.138;stroke-linejoin:round"
         d="m 105.60532,105.43755 c 0,0 13.41791,-7.96893 17.88701,-11.25944 4.94583,-3.60034 5.79795,-7.194866 5.83103,-9.370909 0.026,-1.711729 -1.00479,-3.73206 -2.2499,-4.728462 -0.49736,-0.398013 -2.59435,-1.942297 -6.43056,-1.376085 -3.22207,0.475569 -5.35195,2.416168 -8.16016,5.259842 C 110.14138,86.33339 99.537989,98.76539 99.537989,98.76539 Z"
         id="path14" />
      <path
         style="display:inline;opacity:1;fill:#f9f9f9;stroke-width:0.138;stroke-linejoin:round"
         d="m 94.554569,107.90118 c 0,0 23.732821,-15.182317 30.237381,-17.409873 2.53248,-0.914505 9.24978,-3.8599 14.32584,2.78558 2.22315,2.910513 2.34632,5.052423 2.03945,8.108013 -0.36133,3.59778 -3.13378,5.97368 -6.41679,6.57059"
         id="path15" />
      <path
         style="display:inline;opacity:1;fill:#ececec;stroke-width:0.138;stroke-linejoin:round"
         d="m 84.384318,105.43755 c 0,0 -13.41791,-7.96893 -17.887011,-11.25944 -4.94583,-3.60034 -5.79795,-7.194866 -5.83103,-9.370909 -0.026,-1.711729 1.00479,-3.73206 2.2499,-4.728462 0.49736,-0.398013 2.59435,-1.942297 6.43056,-1.376085 3.222071,0.475569 5.351951,2.416168 8.160161,5.259842 2.34136,2.370894 12.94475,14.802894 12.94475,14.802894 z"
         id="path16" />
      <path
         style="display:inline;opacity:1;fill:#f9f9f9;stroke-width:0.142744;stroke-linejoin:round"
         d="m 100.88132,105.7998 c 0,0 9.15257,-10.86362 12.26603,-15.48924 1.82916,-3.163105 3.9676,-8.06425 3.42706,-10.510599 -0.76223,-3.449614 -3.8603,-4.312785 -4.80186,-4.642396 -0.65431,-0.229047 -3.57857,-0.809064 -7.23433,1.153907 -3.07051,1.648722 -4.39218,4.184258 -6.010712,7.780712 -1.349442,2.998522 -6.7229,18.084746 -6.7229,18.084746 z"
         id="path17" />
      <path
         style="display:inline;opacity:1;fill:#f9f9f9;stroke-width:0.145094;stroke-linejoin:round"
         d="m 88.10856,106.148 c 0,0 -9.307993,-11.03674 -12.474333,-15.736062 -1.860221,-3.21351 -4.034977,-8.192754 -3.485251,-10.678085 0.775173,-3.504583 3.925849,-4.381509 4.883405,-4.716372 0.665414,-0.232697 3.639333,-0.821957 7.357177,1.172294 3.122657,1.674994 4.466764,4.250934 6.11278,7.904697 1.372362,3.046304 6.837068,18.372928 6.837068,18.372928 z"
         id="path18" />
      <path
         style="display:inline;opacity:1;fill:#f9f9f9;stroke-width:0.138;stroke-linejoin:round"
         d="M 95.037343,107.90118 64.799963,90.491307 c 0,0 -9.24978,-3.8599 -14.325844,2.78558 -2.22315,2.910513 -2.34632,5.052423 -2.03945,8.108013 0.36133,3.59778 3.13378,5.97368 6.416794,6.57059"
         id="path19" />
      <path
         id="path20"
         style="display:inline;opacity:1;fill:#ffcd00;stroke-width:0.128037;stroke-linejoin:round;fill-opacity:1"
         d="M 75.50644,107.90675 A 19.300093,16.614 0 0 1 94.806037,91.292733 19.300093,16.614 0 0 1 114.10615,107.90675 Z" />
      <path
         style="display:none;opacity:1;fill:#e6e6e6;stroke-width:0.138;stroke-linejoin:round"
         d="m 100.80658,96.656137 4.29115,-21.103959 c 0,0 1.54762,-6.401535 -1.1959,-8.934009 -3.26309,-3.012071 -7.949158,-2.88421 -8.582277,-2.813862 -0.633119,0.07035 -4.852093,0.387072 -7.386386,2.110394 -1.758662,1.195893 -3.341613,2.657062 -2.321435,9.14505 0.517587,3.291685 4.220793,21.737079 4.220793,21.737079 z"
         id="path21" />
    </g>
    <g
       id="g23"
       style="fill:#4e9a1c;fill-opacity:1"
       transform="translate(-0.86470126)">
      <path
         style="opacity:1;fill:#4e9a1c;fill-opacity:1;stroke-width:0.138;stroke-linejoin:round"
         d="m 94.827128,149.41604 c 0,0 1.969702,-17.72733 18.852872,-18.2901 h 30.67109 c 0,0 7.94415,0.54863 7.66277,-9.29988 0,0 -0.79588,-5.04788 -5.57945,-7.01758 0,0 10.42836,3.2318 11.55391,11.39199 0,0 0.0141,8.34453 -6.85276,14.78813 0,0 -9.71489,7.51501 -24.66249,8.41037"
         id="path22" />
      <path
         style="opacity:1;fill:#4e9a1c;fill-opacity:1;stroke:none;stroke-width:0.138;stroke-linejoin:round"
         d="m 94.317905,149.41604 c 0,0 -1.9697,-17.72733 -18.85287,-18.2901 h -30.67109 c 0,0 -7.94415,0.54863 -7.66277,-9.29988 0,0 0.79588,-5.04788 5.57945,-7.01758 0,0 -10.428362,3.2318 -11.553912,11.39199 0,0 -0.0141,8.34453 6.852762,14.78813 0,0 9.71489,7.51501 24.66249,8.41037"
         id="path23" />
    </g>
  </g>
</svg>
